<?xml version="1.0" encoding="utf-8"?>
<!-- Generator: Adobe Illustrator 15.0.0, SVG Export Plug-In . SVG Version: 6.00 Build 0)  -->
<!DOCTYPE svg PUBLIC "-//W3C//DTD SVG 1.1//EN" "http://www.w3.org/Graphics/SVG/1.1/DTD/svg11.dtd">
<svg version="1.1" id="Layer_1" xmlns="http://www.w3.org/2000/svg" xmlns:xlink="http://www.w3.org/1999/xlink" x="0px" y="0px"
	 width="347.218px" height="63.407px" viewBox="0 0 347.218 63.407" enable-background="new 0 0 347.218 63.407"
	 xml:space="preserve">
<g>
	<path fill="#A62FB6" d="M340.98,0.638c-3.353,0-6.067,2.719-6.067,6.07s2.714,6.064,6.067,6.064c3.349,0,6.066-2.713,6.066-6.064
		S344.33,0.638,340.98,0.638"/>
	<g>
		<g>
			<path fill="#A62FB6" d="M306.888,3.63c-12.059,0-21.475,9.122-21.475,21.184c0,12.07,10.146,21.186,22.208,21.186H328V25.469
				C328,13.406,318.954,3.63,306.888,3.63z M317,35h-9.378c-6.178,0-11.189-4.192-11.189-10.359c0-6.171,4.111-10.777,10.286-10.777
				c6.163,0,10.282,5.436,10.282,11.604V35z"/>
		</g>
	</g>
	<path fill="#A62FB6" d="M335.084,16.91v30.404h12.133V29.043C347.218,22.344,341.794,16.91,335.084,16.91"/>
	<g>
		<path fill="#FFFFFF" d="M6.349,47.453H0V0h10.107c6.025,0,10.821,1.067,14.378,3.203c3.558,2.133,6.36,5.039,8.397,8.715
			c2.041,3.675,3.063,7.6,3.063,11.774c0,7.492-2.312,13.325-6.94,17.499s-9.977,6.262-16.051,6.262H8.542v-5.637h3.278
			c5.178,0,9.405-1.662,12.684-4.99c3.278-3.327,4.917-7.604,4.917-12.832c0-5.466-1.721-9.921-5.163-13.367
			c-3.442-3.446-7.892-5.169-13.353-5.169H6.349V47.453z"/>
		<path fill="#FFFFFF" d="M46.113,1.602c1.133,0,2.104,0.401,2.91,1.207c0.803,0.805,1.205,1.775,1.205,2.911
			c0,1.182-0.401,2.174-1.205,2.979c-0.807,0.805-1.777,1.207-2.91,1.207c-1.182,0-2.179-0.401-2.981-1.207
			c-0.807-0.805-1.208-1.797-1.208-2.979c0-1.136,0.401-2.106,1.208-2.911C43.934,2.003,44.931,1.602,46.113,1.602z M49.042,47.453
			h-5.695V15.125h5.695V47.453z"/>
		<path fill="#FFFFFF" d="M62.234,61.779l0.498-5.133c3.654,1.107,6.903,1.662,9.75,1.662c4.509,0,7.46-0.952,8.862-2.851
			c1.397-1.901,2.242-3.47,2.528-4.704c0.282-1.234,0.427-2.922,0.427-5.062V33.435c0-4.134-0.974-7.386-2.918-9.764
			c-1.948-2.375-4.628-3.565-8.044-3.565c-3.178,0-5.825,1.082-7.937,3.242c-2.111,2.162-3.167,4.831-3.167,8.013
			c0,3.132,1.044,5.769,3.134,7.903c2.093,2.139,4.706,3.206,7.839,3.206c1.71,0,3.145-0.258,4.312-0.781
			c1.164-0.521,2.669-1.585,4.528-3.195v5.909c-1.903,1.422-3.531,2.396-4.888,2.918c-1.357,0.521-2.959,0.784-4.814,0.784
			c-4.375,0-8.141-1.652-11.3-4.953s-4.743-7.232-4.743-11.791c0-4.654,1.65-8.633,4.951-11.937
			c3.301-3.301,7.327-4.951,12.074-4.951c4.937,0,8.951,1.686,12.033,5.056c3.089,3.373,4.635,7.767,4.635,13.177v13.962
			c0,5.271-1.45,9.378-4.345,12.323c-2.892,2.942-6.925,4.416-12.096,4.416C70.23,63.407,66.454,62.864,62.234,61.779z"/>
		<path fill="#FFFFFF" d="M102.128,1.602c1.138,0,2.107,0.401,2.911,1.207c0.803,0.805,1.208,1.775,1.208,2.911
			c0,1.182-0.405,2.174-1.208,2.979c-0.803,0.805-1.773,1.207-2.911,1.207c-1.186,0-2.175-0.401-2.981-1.207
			c-0.803-0.805-1.208-1.797-1.208-2.979c0-1.136,0.405-2.106,1.208-2.911C99.953,2.003,100.942,1.602,102.128,1.602z
			 M105.061,47.453h-5.699V15.125h5.699V47.453z"/>
		<path fill="#FFFFFF" d="M119.792,20.285v15.083c0,2.799,0.498,4.673,1.498,5.621c0.996,0.946,3.018,1.422,6.063,1.422h2.784v5.042
			h-3.063c-4.947,0-8.341-0.855-10.196-2.563s-2.78-4.817-2.78-9.325V5.457h5.695v9.845h10.345v4.983H119.792z"/>
		<path fill="#FFFFFF" d="M167.693,47.453h-5.695V33.281c0-3.985-1.004-7.178-3.019-9.578c-2.019-2.396-4.732-3.597-8.145-3.597
			c-3.082,0-5.687,1.093-7.821,3.277c-2.13,2.184-3.197,4.842-3.197,7.978c0,3.132,1.066,5.769,3.193,7.903
			c2.13,2.139,4.78,3.206,7.955,3.206c2.84,0,5.728-1.305,8.661-3.915v6.056c-1.517,1.284-2.985,2.186-4.409,2.71
			c-1.424,0.521-3.082,0.784-4.978,0.784c-4.55,0-8.416-1.615-11.59-4.845c-3.174-3.23-4.766-7.197-4.766-11.899
			c0-4.654,1.65-8.633,4.948-11.937c3.297-3.301,7.319-4.951,12.063-4.951c4.84,0,8.851,1.662,12.033,4.985
			c3.178,3.327,4.766,7.552,4.766,12.68V47.453z"/>
		<path fill="#FFFFFF" d="M181.703,47.453h-5.691V0h5.691V47.453z"/>
		<path fill="#FFFFFF" d="M211.835,15.125h5.695v18.35c0,8.202-3.562,12.992-10.68,14.366v14.794h-5.691V47.841
			c-7.397-0.946-11.092-5.617-11.092-14.009V15.125h5.695v18.387c0,2.9,0.71,5.156,2.13,6.771c1.423,1.615,3.412,2.423,5.977,2.423
			c2.558,0,4.528-0.82,5.899-2.461c1.379-1.637,2.067-3.979,2.067-7.018V15.125z"/>
		<path fill="#FFFFFF" d="M224.942,47.453V42.47h12.713h0.707c1.847,0,3.007-0.035,3.483-0.108c0.472-0.069,1.1-0.307,1.877-0.712
			c0.785-0.403,1.175-1.316,1.175-2.74c0-1.613-0.955-2.75-2.874-3.416l-12.025-4.271c-2.283-0.807-3.903-1.818-4.881-3.026
			c-0.974-1.212-1.458-2.838-1.458-4.881c0-5.46,3.94-8.191,11.817-8.191h12.951v4.981h-13.813c-3.464,0-5.201,1.218-5.201,3.649
			c0,1.526,0.997,2.624,2.996,3.29l11.241,3.992c2.654,0.901,4.513,1.954,5.576,3.162c1.071,1.208,1.599,2.831,1.599,4.868
			c0,5.591-3.576,8.386-10.735,8.386H224.942z"/>
		<path fill="#FFFFFF" d="M262.713,20.285v15.083c0,2.799,0.498,4.673,1.498,5.621c1,0.946,3.022,1.422,6.063,1.422h2.784v5.042
			h-3.067c-4.944,0-8.341-0.855-10.193-2.563c-1.854-1.708-2.78-4.817-2.78-9.325V5.457h5.695v9.845h10.345v4.983H262.713z"/>
	</g>
</g>
</svg>
